<svg width="26" height="26" viewBox="0 0 26 26" fill="none" xmlns="http://www.w3.org/2000/svg">
<path d="M5.12664 22.4427C6.65792 22.4427 7.89927 21.2013 7.89927 19.67C7.89927 18.1388 6.65792 16.8974 5.12664 16.8974C3.59535 16.8974 2.354 18.1388 2.354 19.67C2.354 21.2013 3.59535 22.4427 5.12664 22.4427Z" fill="#909BA6"/>
<path d="M22.966 19.9839C24.295 19.9839 25.3724 18.9065 25.3724 17.5775C25.3724 16.2484 24.295 15.171 22.966 15.171C21.637 15.171 20.5596 16.2484 20.5596 17.5775C20.5596 18.9065 21.637 19.9839 22.966 19.9839Z" fill="#C8D2DC"/>
<path d="M20.7687 7.8471C21.8666 7.8471 22.7566 6.95707 22.7566 5.85917C22.7566 4.76127 21.8666 3.87125 20.7687 3.87125C19.6708 3.87125 18.7808 4.76127 18.7808 5.85917C18.7808 6.95707 19.6708 7.8471 20.7687 7.8471Z" fill="#E9EDF1"/>
<path d="M2.94239 15.6747C4.56743 15.6747 5.88479 14.3894 5.88479 12.804C5.88479 11.2186 4.56743 9.93335 2.94239 9.93335C1.31735 9.93335 0 11.2186 0 12.804C0 14.3894 1.31735 15.6747 2.94239 15.6747Z" fill="#7E8B96"/>
<path d="M11.3951 26C12.8724 26 14.07 24.833 14.07 23.3935C14.07 21.9539 12.8724 20.7869 11.3951 20.7869C9.91782 20.7869 8.72021 21.9539 8.72021 23.3935C8.72021 24.833 9.91782 26 11.3951 26Z" fill="#A2ABB8"/>
<path d="M18.2697 24.858C19.6731 24.858 20.8108 23.7502 20.8108 22.3837C20.8108 21.0172 19.6731 19.9094 18.2697 19.9094C16.8662 19.9094 15.7285 21.0172 15.7285 22.3837C15.7285 23.7502 16.8662 24.858 18.2697 24.858Z" fill="#B9C3CD"/>
<path d="M6.12542 9.00797C7.82431 9.00797 9.20153 7.66364 9.20153 6.00531C9.20153 4.34699 7.82431 3.00266 6.12542 3.00266C4.42654 3.00266 3.04932 4.34699 3.04932 6.00531C3.04932 7.66364 4.42654 9.00797 6.12542 9.00797Z" fill="#5F6C75"/>
<path d="M23.7263 13.5563C24.982 13.5563 26 12.5572 26 11.3248C26 10.0923 24.982 9.09326 23.7263 9.09326C22.4706 9.09326 21.4526 10.0923 21.4526 11.3248C21.4526 12.5572 22.4706 13.5563 23.7263 13.5563Z" fill="#DCE6EB"/>
<path d="M13.7586 6.48692C15.5499 6.48692 17.0021 5.03477 17.0021 3.24346C17.0021 1.45215 15.5499 0 13.7586 0C11.9673 0 10.5151 1.45215 10.5151 3.24346C10.5151 5.03477 11.9673 6.48692 13.7586 6.48692Z" fill="#4E5A61"/>
</svg>
